<svg width="600" height="900" viewBox="0 -350 600 1600" fill="none" xmlns="http://www.w3.org/2000/svg">
<path d="M299.861 900C357.274 900 403.816 865.336 403.816 822.576C403.816 779.816 357.274 745.152 299.861 745.152C242.448 745.152 195.906 779.816 195.906 822.576C195.906 865.336 242.448 900 299.861 900Z" fill="#5A67D8"/>
<path d="M297.832 0.00583058C135.365 0.860554 2.33793 99.192 0.0300431 220.186C0.00866459 221.303 -0.00117639 229.158 0.000111742 239.431C0.00117835 254.494 8.03565 268.94 22.3363 279.591C36.637 290.243 56.0327 296.228 76.2575 296.23H76.2577C86.2835 296.228 96.2105 294.755 105.472 291.895C114.733 289.035 123.146 284.844 130.232 279.561C137.317 274.278 142.936 268.007 146.766 261.106C150.596 254.206 152.563 246.811 152.554 239.344C152.546 232.355 152.542 227.518 152.542 227.222C152.536 208.522 159.067 190.144 171.491 173.894C183.916 157.645 201.805 144.084 223.401 134.546C244.996 125.008 269.554 119.821 294.657 119.495C319.76 119.169 344.545 123.716 366.574 132.689C388.602 141.661 407.115 154.75 420.291 170.667C433.468 186.585 440.854 204.782 441.723 223.471C442.592 242.159 436.914 260.694 425.248 277.252C413.581 293.81 396.329 307.821 375.187 317.907L375.213 317.931C375.213 317.931 266.674 369.972 233.584 441.364L233.612 441.369C227.793 455.994 224.845 471.169 224.858 486.422C224.858 492.693 225.354 547.556 226.31 592.085C226.645 607.449 235.076 622.1 249.785 632.876C264.493 643.651 284.3 649.689 304.932 649.685H304.932C315.299 649.685 325.564 648.158 335.136 645.192C344.707 642.226 353.397 637.879 360.705 632.403C368.013 626.926 373.794 620.427 377.717 613.28C381.64 606.133 383.627 598.479 383.563 590.758C383.23 549.977 383.051 502.492 383.051 499.046C383.051 455.209 439.831 411.532 486.471 383.049C540.18 350.25 578.828 305.553 594.352 255.134C597.787 244.753 599.681 234.123 600 223.435C600 193.957 592.168 164.771 576.956 137.557C561.744 110.344 539.452 85.6413 511.364 64.8728C483.277 44.1044 449.949 27.6806 413.301 16.5477C376.654 5.41482 337.41 -0.207115 297.832 0.00583058V0.00583058Z" fill="#5A67D8"/>
</svg>
